<?xml version="1.0" encoding="UTF-8"?>
<svg fill="#FFFFFF" width="100pt" height="100pt" version="1.1" viewBox="0 0 100 100" xmlns="http://www.w3.org/2000/svg">
 <path d="m7.8867 26.004c-0.59375 0.03125-1.1445 0.33203-1.5 0.8125-0.35156 0.48438-0.47266 1.0977-0.32422 1.6797l11.156 43.82v-0.003906c0.015625 0.066406 0.03125 0.12891 0.050781 0.19141 0.23438 0.875 1.0234 1.4844 1.9297 1.4844h61.422c1.0938 0.11328 2.0742-0.68359 2.1875-1.7773l11.129-43.715v-0.003906c0.15234-0.58984 0.023438-1.2188-0.34766-1.7031-0.37109-0.48437-0.94141-0.77344-1.5508-0.78516-0.37891-0.007812-0.75 0.089844-1.0742 0.28516l-27.914 16.867-11.414-16.305v0.003907c-0.39062-0.55859-1.0352-0.87891-1.7188-0.85156-0.62109 0.023438-1.1992 0.33984-1.5586 0.85156l-11.414 16.305-27.91-16.867v-0.003907c-0.28516-0.17187-0.61328-0.27344-0.94922-0.28516-0.066407-0.003906-0.13281-0.003906-0.19922 0zm42.109 5.4883 9.6211 13.742-9.6211 5.8125-9.6211-5.8125zm-38.855 0.74609 23.504 14.203-14.586 20.832zm77.715 0-8.9219 35.039-14.586-20.832zm-50.777 16.277 8.0547 4.8672-19.867 12.004zm23.84 0 11.812 16.871-19.863-12.004zm-11.918 7.2031 23.625 14.273h-47.246z"/>
</svg>
